# xmcd
#
# Track frame offsets: 
#        150
#        16547
#        37737
#        54640
#        68327
#        81477
#        96052
#        107192
#        125470
#        139270
#
# Disc length: 2119 seconds
#
# Revision: 4
# Processed by: cddbd v1.5.2PL0 Copyright (c) Steve Scherf et al.
# Submitted via: ExactAudioCopy v0.99pb3
#
DISCID=7808450a
DTITLE=Hazlewood, Lee - Trouble Is A Lonesome Town
DYEAR=1963
DGENRE=Rock
TTITLE0=Long Black Train
TTITLE1=Ugly Brown
TTITLE2=Son Of A Gun
TTITLE3=We All Make The Flowers Grow
TTITLE4=Run Boy Run
TTITLE5=Six Feet Of Chain
TTITLE6=The Railroad
TTITLE7=Look At That Woman
TTITLE8=Peculiar Guy
TTITLE9=Trouble Is A Lonesome Town
EXTD=
EXTT0=
EXTT1=
EXTT2=
EXTT3=
EXTT4=
EXTT5=
EXTT6=
EXTT7=
EXTT8=
EXTT9=
PLAYORDER=
